<svg width="453" height="525" viewBox="0 0 453 525" fill="none" xmlns="http://www.w3.org/2000/svg">
<path d="M452.354 220.878C452.354 342.869 351.082 441.756 226.15 441.756C142.438 441.756 69.3358 397.363 30.2383 331.317C69.3358 265.271 142.438 220.878 226.15 220.878V83.2437C115.86 83.2437 23.9254 160.427 4.03177 262.474C1.37929 249.006 0 235.072 0 220.826C0 98.8875 101.272 0 226.203 0C351.135 0 452.407 98.8875 452.407 220.878H452.354Z" fill="#E6411C"/>
<path d="M226.202 220.87V524.992C125.885 524.992 40.8468 461.225 11.2451 372.905C16.1257 358.297 22.5447 344.363 30.343 331.257C69.4405 265.212 142.543 220.818 226.255 220.818L226.202 220.87Z" fill="#E6411C"/>
<path d="M226.202 220.87V524.992C125.885 524.992 40.8468 461.225 11.2451 372.905C16.1257 358.297 22.5447 344.363 30.343 331.257C69.4405 265.212 142.543 220.818 226.255 220.818L226.202 220.87Z" fill="#E6411C"/>
<path d="M89.4956 401.409C105.61 401.409 118.673 388.654 118.673 372.919C118.673 357.184 105.61 344.429 89.4956 344.429C73.3815 344.429 60.3184 357.184 60.3184 372.919C60.3184 388.654 73.3815 401.409 89.4956 401.409Z" fill="white"/>
<path d="M103.024 384.311C109.47 384.311 114.695 379.209 114.695 372.915C114.695 366.621 109.47 361.519 103.024 361.519C96.5788 361.519 91.3535 366.621 91.3535 372.915C91.3535 379.209 96.5788 384.311 103.024 384.311Z" fill="#E6411C"/>
</svg>
